<svg xmlns="http://www.w3.org/2000/svg" style="display:none">

  <!-- PHONE -->
  <symbol id="icon-phone" viewBox="0 0 24 24">
    <path
      d="M22 16.9v3a2 2 0 0 1-2.2 2 19.7 19.7 0 0 1-8.6-3.1 19.5 19.5 0 0 1-6-6A19.7 19.7 0 0 1 2 4.2 2 2 0 0 1 4.1 2h3a2 2 0 0 1 2 1.7c.1.9.4 1.8.7 2.6a2 2 0 0 1-.4 2.1L8.1 9.9a16 16 0 0 0 6 6l1.5-1.3a2 2 0 0 1 2.1-.4c.8.3 1.7.6 2.6.7A2 2 0 0 1 22 16.9Z"
      fill="none"
      stroke="currentColor"
      stroke-width="1.7"
      stroke-linecap="round"
      stroke-linejoin="round"
    />
  </symbol>

  <!-- EMAIL -->
  <symbol id="icon-email" viewBox="0 0 24 24">
    <rect
      x="2"
      y="4"
      width="20"
      height="16"
      rx="2"
      fill="none"
      stroke="currentColor"
      stroke-width="1.7"
      stroke-linejoin="round"
    />
    <path
      d="M3.5 6.5 11.6 12a1.8 1.8 0 0 0 1.8 0L20.5 6.5"
      fill="none"
      stroke="currentColor"
      stroke-width="1.7"
      stroke-linecap="round"
      stroke-linejoin="round"
    />
  </symbol>

  <!-- WHATSAPP -->
  <symbol id="icon-whatsapp" viewBox="0 0 24 24">
    <path
      d="M4 20.5 4.8 17A8 8 0 1 1 12 20a8.2 8.2 0 0 1-3.8-1L4 20.5Z"
      fill="none"
      stroke="currentColor"
      stroke-width="1.7"
      stroke-linejoin="round"
    />
    <path
      d="M9.2 8.3c.2-.4.3-.6.6-.6h.5c.2 0 .4 0 .5.3l.4 1c.1.2.1.3 0 .5l-.3.4c-.1.1-.1.3 0 .4a4.4 4.4 0 0 0 2 2c.2.1.3.1.4 0l.5-.3c.2-.1.3-.1.5 0l1 .4c.2.1.3.2.3.5v.5c0 .3-.2.6-.5.8l-.4.2c-.4.2-.9.2-1.3.1a6.4 6.4 0 0 1-3.1-1.6 6.1 6.1 0 0 1-1.8-3c-.1-.4-.1-.9.1-1.3l.2-.4Z"
      fill="currentColor"
    />
  </symbol>

  <!-- LIST ICON (TICK) -->
  <symbol id="icon-check" viewBox="0 0 24 24">
    <path
      d="M5 12.5 9.2 17 19 7"
      fill="none"
      stroke="currentColor"
      stroke-width="2"
      stroke-linecap="round"
      stroke-linejoin="round"
    />
  </symbol>

</svg>
