<svg xmlns="http://www.w3.org/2000/svg" style="display:none">

  <!-- PHONE (Pure Stroke) -->
  <symbol id="icon-phone" viewBox="0 0 24 24">
    <path
      d="M22 16.9v3a2 2 0 0 1-2.2 2 19.7 19.7 0 0 1-8.6-3.1 19.5 19.5 0 0 1-6-6A19.7 19.7 0 0 1 2 4.2 2 2 0 0 1 4.1 2h3a2 2 0 0 1 2 1.7c.1.9.4 1.8.7 2.6a2 2 0 0 1-.4 2.1L8.1 9.9a16 16 0 0 0 6 6l1.5-1.3a2 2 0 0 1 2.1-.4c.8.3 1.7.6 2.6.7A2 2 0 0 1 22 16.9Z"
      fill="none"
      stroke="currentColor"
      stroke-width="1.7"
      stroke-linecap="round"
      stroke-linejoin="round"
    />
  </symbol>

  <!-- EMAIL (Pure Stroke) -->
  <symbol id="icon-email" viewBox="0 0 24 24">
    <rect
      x="2"
      y="4"
      width="20"
      height="16"
      rx="2"
      fill="none"
      stroke="currentColor"
      stroke-width="1.7"
      stroke-linejoin="round"
    />
    <path
      d="M3.5 6.5 11.6 12a1.8 1.8 0 0 0 1.8 0L20.5 6.5"
      fill="none"
      stroke="currentColor"
      stroke-width="1.7"
      stroke-linecap="round"
      stroke-linejoin="round"
    />
  </symbol>

  <!-- WHATSAPP -->
<symbol id="icon-whatsapp" viewBox="0 0 512 512">
    <circle
        cx="256"
        cy="256"
        r="256"
        fill="#25D366"
    />

    <path
        fill="#ffffff"
        d="M256.064 96C167.81 96 96 167.744 96 256c0 31.744 9.28 62.56 26.816 88.96L96 416l73.92-26.112A159.1 159.1 0 0 0 256.064 416C344.256 416 416 344.256 416 256S344.256 96 256.064 96zm0 291.2c-25.6 0-50.688-6.72-72.832-19.456l-5.216-3.072-43.776 15.36 14.336-45.184-3.392-5.536c-13.568-22.4-20.736-48.128-20.736-74.304 0-78.784 64.064-142.848 142.848-142.848S398.912 177.216 398.912 256 334.848 387.2 256.064 387.2zm78.4-97.92c-4.224-2.112-24.96-12.288-28.8-13.664-3.84-1.408-6.624-2.112-9.408 2.112-2.784 4.224-10.848 13.664-13.312 16.448-2.464 2.816-4.928 3.168-9.152 1.056-4.224-2.112-17.792-6.56-33.856-20.928-12.48-11.136-20.896-24.96-23.36-29.184-2.464-4.224-.256-6.496 1.856-8.576 1.92-1.888 4.224-4.928 6.336-7.424 2.112-2.464 2.816-4.224 4.224-7.04 1.408-2.816.704-5.28-.352-7.424-1.056-2.112-9.408-22.72-12.896-31.104-3.392-8.192-6.848-7.104-9.408-7.232-2.464-.128-5.28-.16-8.064-.16-2.816 0-7.424 1.056-11.328 5.28-3.904 4.224-14.848 14.528-14.848 35.52s15.2 41.28 17.312 44.096c2.112 2.816 29.952 45.792 72.576 64.192 10.112 4.352 18.016 6.944 24.192 8.928 10.144 3.232 19.36 2.784 26.624 1.696 8.128-1.216 24.96-10.24 28.512-20.16 3.552-9.92 3.552-18.464 2.464-20.16-1.056-1.728-3.84-2.816-8.064-4.928z"
    />
</symbol>

  <!-- TICK/CHECK (Pure Stroke) -->
  <symbol id="icon-check" viewBox="0 0 24 24">
    <path
      d="M5 12.5 9.2 17 19 7"
      fill="none"
      stroke="currentColor"
      stroke-width="2"
      stroke-linecap="round"
      stroke-linejoin="round"
    />
  </symbol>

  <!-- LOCATION PIN (Cleaned & CSS controllable) -->
  <symbol id="icon-location" viewBox="0 0 24 24">
    <path 
      d="M21 10c0 7-9 13-9 13s-9-6-9-13a9 9 0 0 1 18 0z" 
      fill="none" 
      stroke="currentColor" 
      stroke-width="1.7" 
      stroke-linecap="round" 
      stroke-linejoin="round"
    />
    <circle 
      cx="12" 
      cy="10" 
      r="3" 
      fill="none" 
      stroke="currentColor" 
      stroke-width="1.7" 
      stroke-linecap="round" 
      stroke-linejoin="round"
    />
  </symbol>

  <!-- FACEBOOK (Pure Stroke) -->
  <symbol id="icon-facebook" viewBox="0 0 24 24">
    <path
      d="M14 8h3V4h-3c-2.2 0-4 1.8-4 4v2H7v4h3v6h4v-6h3l1-4h-4V8c0-.6.4-1 1-1Z"
      fill="none"
      stroke="currentColor"
      stroke-width="1.7"
      stroke-linecap="round"
      stroke-linejoin="round"
    />
  </symbol>

  <!-- X / TWITTER (Official Solid Geometry Layout) -->
  <symbol id="icon-x" viewBox="0 0 24 24">
    <path 
      d="M18.244 2.25h3.308l-7.227 8.26 8.502 11.24H16.17l-5.214-6.817L4.99 21.75H1.68l7.73-8.835L1.254 2.25H8.08l4.713 6.231zm-1.161 17.52h1.833L7.084 4.126H5.117z"
      fill="currentColor"
    />
  </symbol>

  <!-- LINKEDIN (Pure Stroke Layout) -->
  <symbol id="icon-linkedin" viewBox="0 0 24 24">
    <path
      d="M16 8a6 6 0 0 1 6 6v7h-4v-7a2 2 0 0 0-2-2 2 2 0 0 0-2 2v7h-4v-7a6 6 0 0 1 6-6zM2 9h4v12H2z"
      fill="none"
      stroke="currentColor"
      stroke-width="1.7"
      stroke-linecap="round"
      stroke-linejoin="round"
    />
    <circle cx="4" cy="4" r="2" fill="currentColor"/>
  </symbol>
</svg>
