<svg xmlns="http://www.w3.org/2000/svg" style="display:none">

  <!-- PHONE (Pure Stroke) -->
  <symbol id="icon-phone" viewBox="0 0 24 24">
    <path
      d="M22 16.9v3a2 2 0 0 1-2.2 2 19.7 19.7 0 0 1-8.6-3.1 19.5 19.5 0 0 1-6-6A19.7 19.7 0 0 1 2 4.2 2 2 0 0 1 4.1 2h3a2 2 0 0 1 2 1.7c.1.9.4 1.8.7 2.6a2 2 0 0 1-.4 2.1L8.1 9.9a16 16 0 0 0 6 6l1.5-1.3a2 2 0 0 1 2.1-.4c.8.3 1.7.6 2.6.7A2 2 0 0 1 22 16.9Z"
      fill="none"
      stroke="currentColor"
      stroke-width="1.7"
      stroke-linecap="round"
      stroke-linejoin="round"
    />
  </symbol>

  <!-- EMAIL (Pure Stroke) -->
  <symbol id="icon-email" viewBox="0 0 24 24">
    <rect
      x="2"
      y="4"
      width="20"
      height="16"
      rx="2"
      fill="none"
      stroke="currentColor"
      stroke-width="1.7"
      stroke-linejoin="round"
    />
    <path
      d="M3.5 6.5 11.6 12a1.8 1.8 0 0 0 1.8 0L20.5 6.5"
      fill="none"
      stroke="currentColor"
      stroke-width="1.7"
      stroke-linecap="round"
      stroke-linejoin="round"
    />
  </symbol>

  <!-- WHATSAPP (Unified Stroke - Fixed for hover) -->
  <symbol id="icon-whatsapp" viewBox="0 0 24 24">
    <path 
      d="M21 11.5a8.38 8.38 0 0 1-.9 3.8 8.5 8.5 0 0 1-7.6 4.7 8.38 8.38 0 0 1-3.8-.9L3 21l1.9-5.7a8.38 8.38 0 0 1-.9-3.8 8.5 8.5 0 0 1 4.7-7.6 8.38 8.38 0 0 1 3.8-.9h.5a8.48 8.48 0 0 1 8 8v.5zM16 14.5c-.3-.2-1.6-.8-1.9-.9-.2-.1-.4-.1-.6.2l-.8 1c-.2.2-.4.2-.7.1a7.5 7.5 0 0 1-2.8-1.7 7.11 7.11 0 0 1-1.9-2.4c-.2-.4 0-.6.1-.8l.4-.5c.1-.1.2-.2.2-.4s-.1-.4-.2-.6l-.7-1.6c-.3-.6-.5-.5-.7-.5h-.5c-.2 0-.6.1-.8.4A2.67 2.67 0 0 0 6 9.3a5.1 5.1 0 0 0 1.1 2.8 11.41 11.41 0 0 0 4.7 4.2c1 .4 1.8.4 2.5.3.7-.1 2.3-.9 2.6-1.8.3-.9.3-1.7.1-1.8z"
      fill="none"
      stroke="currentColor"
      stroke-width="1.7"
      stroke-linecap="round"
      stroke-linejoin="round"
    />
  </symbol>

  <!-- TICK/CHECK (Pure Stroke) -->
  <symbol id="icon-check" viewBox="0 0 24 24">
    <path
      d="M5 12.5 9.2 17 19 7"
      fill="none"
      stroke="currentColor"
      stroke-width="2"
      stroke-linecap="round"
      stroke-linejoin="round"
    />
  </symbol>

  <!-- LOCATION PIN (Cleaned & CSS controllable) -->
  <symbol id="icon-location" viewBox="0 0 24 24">
    <path 
      d="M21 10c0 7-9 13-9 13s-9-6-9-13a9 9 0 0 1 18 0z" 
      fill="none" 
      stroke="currentColor" 
      stroke-width="1.7" 
      stroke-linecap="round" 
      stroke-linejoin="round"
    />
    <circle 
      cx="12" 
      cy="10" 
      r="3" 
      fill="none" 
      stroke="currentColor" 
      stroke-width="1.7" 
      stroke-linecap="round" 
      stroke-linejoin="round"
    />
  </symbol>

  <!-- FACEBOOK (Pure Stroke) -->
  <symbol id="icon-facebook" viewBox="0 0 24 24">
    <path
      d="M14 8h3V4h-3c-2.2 0-4 1.8-4 4v2H7v4h3v6h4v-6h3l1-4h-4V8c0-.6.4-1 1-1Z"
      fill="none"
      stroke="currentColor"
      stroke-width="1.7"
      stroke-linecap="round"
      stroke-linejoin="round"
    />
  </symbol>

  <!-- X / TWITTER (Official Solid Geometry Layout) -->
  <symbol id="icon-x" viewBox="0 0 24 24">
    <path 
      d="M18.244 2.25h3.308l-7.227 8.26 8.502 11.24H16.17l-5.214-6.817L4.99 21.75H1.68l7.73-8.835L1.254 2.25H8.08l4.713 6.231zm-1.161 17.52h1.833L7.084 4.126H5.117z"
      fill="currentColor"
    />
  </symbol>

  <!-- LINKEDIN (Pure Stroke Layout) -->
  <symbol id="icon-linkedin" viewBox="0 0 24 24">
    <path
      d="M16 8a6 6 0 0 1 6 6v7h-4v-7a2 2 0 0 0-2-2 2 2 0 0 0-2 2v7h-4v-7a6 6 0 0 1 6-6zM2 9h4v12H2z"
      fill="none"
      stroke="currentColor"
      stroke-width="1.7"
      stroke-linecap="round"
      stroke-linejoin="round"
    />
    <circle cx="4" cy="4" r="2" fill="currentColor"/>
  </symbol>
</svg>
